<svg width="96" height="95" viewBox="0 0 96 95" fill="none" xmlns="http://www.w3.org/2000/svg">
<g filter="url(#filter0_ddd_90_4369)">
<rect x="18" y="16" width="60" height="60" rx="30" fill="#00BD7E"/>
<path d="M49.5 36C49.5 36.4442 49.3069 36.8434 49 37.1181V39H54C55.6569 39 57 40.3432 57 42V52C57 53.6569 55.6569 55 54 55H42C40.3432 55 39 53.6569 39 52V42C39 40.3432 40.3432 39 42 39H47V37.1181C46.6931 36.8434 46.5 36.4442 46.5 36C46.5 35.1716 47.1716 34.5 48 34.5C48.8284 34.5 49.5 35.1716 49.5 36ZM42 41C41.4477 41 41 41.4477 41 42V52C41 52.5523 41.4477 53 42 53H54C54.5523 53 55 52.5523 55 52V42C55 41.4477 54.5523 41 54 41H49H47H42ZM38 44H36V50H38V44ZM58 44H60V50H58V44ZM45 48.5C45.8284 48.5 46.5 47.8284 46.5 47C46.5 46.1716 45.8284 45.5 45 45.5C44.1716 45.5 43.5 46.1716 43.5 47C43.5 47.8284 44.1716 48.5 45 48.5ZM51 48.5C51.8284 48.5 52.5 47.8284 52.5 47C52.5 46.1716 51.8284 45.5 51 45.5C50.1716 45.5 49.5 46.1716 49.5 47C49.5 47.8284 50.1716 48.5 51 48.5Z" fill="#080808"/>
</g>
<defs>
<filter id="filter0_ddd_90_4369" x="0" y="-1" width="96" height="96" filterUnits="userSpaceOnUse" color-interpolation-filters="sRGB">
<feFlood flood-opacity="0" result="BackgroundImageFix"/>
<feColorMatrix in="SourceAlpha" type="matrix" values="0 0 0 0 0 0 0 0 0 0 0 0 0 0 0 0 0 0 127 0" result="hardAlpha"/>
<feMorphology radius="1" operator="erode" in="SourceAlpha" result="effect1_dropShadow_90_4369"/>
<feOffset dy="3"/>
<feGaussianBlur stdDeviation="2.5"/>
<feComposite in2="hardAlpha" operator="out"/>
<feColorMatrix type="matrix" values="0 0 0 0 0 0 0 0 0 0 0 0 0 0 0 0 0 0 0.2 0"/>
<feBlend mode="normal" in2="BackgroundImageFix" result="effect1_dropShadow_90_4369"/>
<feColorMatrix in="SourceAlpha" type="matrix" values="0 0 0 0 0 0 0 0 0 0 0 0 0 0 0 0 0 0 127 0" result="hardAlpha"/>
<feOffset dy="6"/>
<feGaussianBlur stdDeviation="5"/>
<feComposite in2="hardAlpha" operator="out"/>
<feColorMatrix type="matrix" values="0 0 0 0 0 0 0 0 0 0 0 0 0 0 0 0 0 0 0.14 0"/>
<feBlend mode="normal" in2="effect1_dropShadow_90_4369" result="effect2_dropShadow_90_4369"/>
<feColorMatrix in="SourceAlpha" type="matrix" values="0 0 0 0 0 0 0 0 0 0 0 0 0 0 0 0 0 0 127 0" result="hardAlpha"/>
<feOffset dy="1"/>
<feGaussianBlur stdDeviation="9"/>
<feComposite in2="hardAlpha" operator="out"/>
<feColorMatrix type="matrix" values="0 0 0 0 0 0 0 0 0 0 0 0 0 0 0 0 0 0 0.12 0"/>
<feBlend mode="normal" in2="effect2_dropShadow_90_4369" result="effect3_dropShadow_90_4369"/>
<feBlend mode="normal" in="SourceGraphic" in2="effect3_dropShadow_90_4369" result="shape"/>
</filter>
</defs>
</svg>

