<svg width="514" height="119" viewBox="0 0 514 119" fill="none" xmlns="http://www.w3.org/2000/svg">
<g clip-path="url(#clip0_52_3335)">
<path d="M90.7 35.8C95.6 33.4 97.8 28.4 101 24.6C104.2 20.8 107.5 17.2 110.9 13.6C112.4 12.1 112.5 11.3 110 10.6C108.5 10.2 108.8 8.8 110.4 8.1C112.1 7.4 113.8 6.8 115.6 6.3C120.5 4.7 125.6 3.9 130.6 2.9C132.3 2.5 134.4 2.2 135.8 3C139.7 5.1 144.5 3.8 148.1 6.8C149.1 7.6 150.8 7.6 152.1 8.2C155 9.6 158 11.1 157.8 15C157.7 16.9 158.9 17.6 159.9 18.8C160.9 20 161.1 21 159.1 21.5C158.6 21.6 157.9 22.7 158 23.3C158.5 26.8 156.8 30.5 159.1 34C159.9 35.2 159.2 37.4 159.2 39.2C159.2 40.5 159 41.9 159.2 43.1C159.4 44.7 161.9 47 162.2 46.4C162.7 45.4 163.2 44.1 163 42.9C162.6 39.7 164.3 37.3 165.7 34.8C168.7 29.3 171.4 23.6 176.3 19.4C177 18.8 177.7 17.5 178.1 17.6C183.5 18.9 185.1 13.4 188.9 11.7C192.1 10.3 194.5 7.2 197.3 4.9C199.6 2.9 201.5 1.5 205.3 2.6C209.4 3.7 213.9 5.2 218.5 4.3C219.2 4.2 220.5 4.3 220.8 4.8C223.3 8.5 225.9 6.2 228.5 5.2C229.4 4.8 230.4 4.3 231.4 4.2C235.1 4.1 239 4.8 242.5 4C246.1 3.1 249.6 2.9 253.2 2.9C256.9 2.9 260.7 3 264.4 2.9C268.7 2.8 273.2 3.3 277.3 2.3C281.7 1.2 285.9 1.9 290.2 1.7C294.6 1.4 299 1.7 303.4 1.6C305.6 1.6 307.6 1.5 309.3 3.4C310 4.2 312.1 4.2 313.5 4.2C328.2 4.3 342.9 4.3 357.6 4.2C361 4.2 363.8 5.3 366 7.7C366.6 8.4 367.4 9.8 367.1 10.4C366 13 364.9 15.8 363.1 17.9C361.7 19.5 359.3 20.4 356.8 20C356.4 19.9 355.9 20 355.5 20C346.2 19 337 21.9 327.7 21.3C327.3 21.3 326.9 21.6 326.6 21.7C327 22 327.4 22.5 327.8 22.5C328.7 22.6 329.6 22.5 330.4 22.5C337 22.9 343.6 23.4 350.3 23.8C350.7 23.8 351 24.2 351.4 24.4C351.1 24.6 350.8 25 350.5 25.1C349.2 25.6 347.7 26.5 346.5 26.3C340.2 25.6 334.2 28.1 327.9 27.7C325 27.6 324.4 28.3 323.8 31.3C323 34.8 322.1 38.3 322.6 41.9C322.7 42.5 323.6 43.4 324 43.4C327.8 43 331.6 44.3 335.4 42.3C337.3 41.3 340.1 42.3 342.6 42.1C345.5 41.9 348.4 42.7 351.4 41C353.5 39.8 355.9 40.8 356.7 43.1C357.6 45.7 359.1 46.2 361.5 46.2C363.3 46.2 364.3 48.4 363 49.7C361.4 51.3 359.5 53.5 357.5 53.8C352.4 54.6 348.1 58.1 342.8 58.1C341.9 58.1 340.9 58.9 340.2 59.6C338.9 60.8 338.8 60.8 337 60C336.4 59.7 335.4 60.5 334.5 60.7C332.8 60.9 331.1 61 329.4 61.2C330.8 63.1 332.9 61.6 334.5 62.1C334.9 62.2 335.2 62.4 335.6 62.6C335.1 62.9 334.7 63.3 334.2 63.4C330.6 63.6 327 62.9 323.5 64.7C322.5 65.2 320.9 64.9 319.6 64.8C316.6 64.4 315.7 64.7 314.7 67.1C313.9 69 313.3 70.9 312.6 72.8C312 74.3 311.5 75.9 310.7 77.3C310.2 78.2 307.8 75.8 307.8 78.8C307.8 79.7 306.1 80.5 307.4 82C308.4 83.2 309.8 83.9 310.8 83.2C314 81.1 317.5 82.4 320.8 82C323.7 81.6 326.6 81.1 329.5 80.7C332.4 80.3 335.4 81.3 338.2 79.5C339.1 78.9 340.8 79.4 342.1 79.4C348.5 79.4 354.8 79.4 361.2 79.4C362.3 79.4 363.5 79.6 363.4 77.9C362.9 72.7 365.3 67.9 364.9 62.6C364.6 59.6 365.6 56.4 366.4 53.4C367.4 49.6 368.2 45.8 368.8 41.9C369.5 37.2 370.8 32.7 371.9 28.1C373.4 22.2 375 16.2 376.6 10.3C376.9 9.3 377.3 8.3 378 7.6C380.9 4.8 384.6 4.1 388.5 4.4C389.2 4.4 389.9 5.2 390.5 5.7C391.9 7 393.3 8.4 394.7 9.9C395.3 10.6 395.6 10.8 396.6 10.1C400.7 7.1 401.3 7.5 403 12.2C405.3 18.5 407.9 24.6 410.4 30.9C411.8 34.5 413.6 38 414.5 41.7C415.1 44.4 416.4 46.6 417.5 49C418.1 50.3 418.6 51.7 418.8 53.1C418.9 54.5 419.1 55.6 420.2 56.5C421.2 57.3 422.1 58.3 422.7 59.4C423.2 60.2 423.2 61.3 423.4 62.3C424.5 61.3 425.3 60.3 425.5 58.5C425.7 55.6 426.5 52.8 426.9 49.9C427.3 47.2 427.5 44.5 428.1 41.9C429.7 35.7 430.9 29.5 432.3 23.2C433.3 18.6 434.7 14.1 435.9 9.6C436.3 8.2 436.8 6.9 437.2 5.5C437.7 4 438.5 4.2 439.6 4.8C440.5 5.3 441.6 5.8 442.5 5.7C446.4 4.9 449.2 7.5 452.5 8.7C452.9 8.8 452.8 10.2 453 12.1C453 12.1 453.1 11.8 453 11.7C452.8 11.4 452.6 11.3 452.4 11C451.7 11.8 450.9 12.5 450.5 13.5C450.2 14.2 450.6 15.1 450.8 16C451.1 15.9 451.6 15.9 451.7 15.7C452.3 14.7 452.9 13.6 453.1 12.1C455.5 10.8 456.7 11.9 457 14.1C457.1 15 457.1 15.9 457 16.7C456.8 17.8 456 19.7 456.2 19.8C458.4 20.9 459.4 18.7 460.1 17.5C462 14.4 463.6 11.1 464.8 7.6C465.5 5.4 466.3 4.2 468.7 4.3C470 4.3 471.3 4.3 472.6 4.3C475.6 4.4 477.5 6.2 478.1 9.3C478.6 11.8 481.3 15.1 482.9 16.5C484.7 18.1 485.3 16.4 485.7 15.7C486.2 14.9 486 13.6 486 12.6C485.9 10.4 485.7 8.1 488.2 7C490.9 5.9 493.7 4.6 496.6 6.3C497.7 7 498.9 7.7 499.9 8.5C500.8 9.2 501.4 10.2 502.3 10.8C502.5 10.9 502.7 11.1 502.8 11.3C502.9 11.5 503 11.8 502.9 12C502.8 12.1 502.7 12.2 502.5 12.2C501.5 12.6 500.4 13 500.2 14.2C500 15.4 501 16.7 500.5 18C500.3 18.6 499.7 18.9 499.1 19.2C497.5 20.4 495.3 20.9 493.8 22.3C492.4 23.6 490.2 25.2 490.2 26.6C490.3 30.3 488.8 34.2 491.1 38C491.9 39.4 492.4 40.1 493.7 39.8C499.2 38.3 505.6 39.9 510.1 34.9C510.5 34.4 511.7 34.5 512.5 34.6C512.9 34.7 513.6 35.6 513.6 35.8C512.3 38.3 512.4 41.7 509.5 43.3C509.3 43.4 508.8 43.4 508.6 43.3C504.3 40.8 500.5 43.9 496.6 44.5C492.7 45.2 488.9 47 485.7 42.9C485 42 483.7 42.1 483.4 43.7C482.9 47.3 484.8 49.9 488.5 50.4C491.2 50.8 492.4 52 491 53.7C489.4 55.8 490.1 56.7 491.6 57.9C493.5 59.5 494.8 61.9 497.5 62.7C498.2 62.9 498.8 64.3 499.1 65.2C499.6 66.6 498.6 67.8 498.4 69.1C498.1 70.7 498.7 72.3 498.8 74C499 77.4 497.1 80.1 496.6 83.3C496.3 85.5 496.6 87.7 496.7 89.9C496.8 92.5 500 92.8 501.9 93.6C503.4 94.2 505.4 93.7 507.1 93.8C507.5 93.8 508.2 94.5 508.3 94.9C508.4 95.4 507.9 96.2 507.5 96.4C504 97.5 500.2 97.9 497 99.5C495 100.5 493.2 100.1 491.4 100.3C491 100.3 490 99.4 490 98.8C489.9 95.5 490 92.1 490 88.8C490 86.5 490.2 84.2 490.1 82C490 79.8 488.8 77.9 488.8 75.6C488.8 72.9 489.9 70.4 489.8 67.7C489.8 67.2 488.9 66.3 488.4 66.3C486.9 66.1 485.3 66.1 483.9 66.4C480.7 67.1 480.7 67.1 476.3 65.1C475.5 64.7 474 64.8 473.3 65.3C472.1 66.1 471.2 67.4 470.3 68.6C469.4 69.7 469.2 71.4 467.8 72C466.9 72.3 466 72.3 465.1 72.7C460.7 74.7 459.5 79.9 455.9 82.9C452.8 85.5 450.8 89.4 448.3 92.8C444.6 98 446.4 102.1 452.6 103.1C453.3 103.2 454.3 103.8 454.3 104.3C454.4 105.4 455.1 107.1 452.8 107C448.9 107 444.9 107.1 441 107C438 106.9 437.5 105.9 438.3 102.7C438.5 101.9 438.8 100.9 438.6 100.2C438 98.5 436.2 97.3 436.7 95C437.2 92.9 437.1 90.8 437.3 88.7C437.3 88.3 437.1 87.9 436.9 87.5C436.6 87.9 436.3 88.2 436 88.6C433.5 91.3 434.6 95 433.7 98.1C432.8 101.1 431.5 103.2 429.4 104.9C427.7 106.2 424.8 105.8 423.5 108.2C423.4 108.4 422.3 108.2 421.8 107.9C417.5 106.1 416 104.4 416.3 99.8C416.6 93.9 414.5 88.8 412.3 83.6C410.5 79.3 408.8 75 407.2 70.6C406.4 68.5 405.6 66.5 404.7 64.4C401.5 56.5 397.3 49 395.1 40.7C394.8 39.7 394.3 38.8 393.8 38C393.5 37.6 392.8 37.2 392.3 37.3C391.9 37.4 391.4 38 391.3 38.5C390.4 42.7 389.5 47 388.6 51.2C387.9 54.7 387.2 58.2 387.1 61.8C387 65.3 386.5 69 385.7 72.4C384.9 75.8 385.4 79.3 384.5 82.4C383.6 85.6 383.3 88.6 383.4 91.8C383.4 93.1 383.1 93.6 381.7 93.9C379.1 94.4 376.8 95.1 375.3 98C374 100.7 371.6 100.3 370.2 97.7C369.7 96.8 369.1 95.9 368.9 94.9C368.6 93.5 368.2 93.8 367.4 94.5C366.4 95.4 365.3 95.5 365 94C364.6 92.3 363.8 91 362.1 91.2C360.5 91.3 359 92 357.5 92.7C357.2 92.9 356.9 94.2 357.1 94.4C358.8 95.6 358 96.5 356.8 97.2C355.6 97.9 354.2 99.1 353 98.9C348.8 98.3 345 100.1 341 100.4C338.1 100.6 335.2 101.3 332.3 101.6C329.6 101.9 327 101.9 324.2 102.7C320 104 315.1 103 311.1 104.4C306.6 106 302.2 105.2 297.7 105.5C294.8 105.7 292.7 103.2 292.4 100.3C291.9 94.9 294.4 90.1 295.3 85C295.4 84.6 296.3 82.1 298 84C298 84 299 83.3 298.9 83.3C298.4 82.4 297.9 81.5 297.2 80.7C295.5 78.9 293.6 77.3 296.1 74.8C296.1 70.2 297.3 65.8 298.9 61.5C299.4 60.2 299.3 58 298.5 57.2C296.8 55.4 299.8 55 299.1 53.4C298.4 51.8 301.6 49.9 299.1 47.8C298.7 47.5 300.4 45.2 300.2 43.9C299.6 39.7 301.5 35.9 301.6 31.9C301.7 30 301.3 28 303.3 26.7C303.8 26.3 304.1 25.3 304.2 24.5C304.3 23.2 304.3 21.9 304.2 20.6C304.1 18.7 304.5 16.1 303.5 15.1C302.6 14.2 299.9 14.2 298.3 16C297.8 16.6 296.2 16.1 295.1 16.1C292.5 16.1 289.8 15.9 287.2 16.2C285 16.5 282.7 17 280.7 18C278.3 19.2 279.5 21.9 279.2 23.9C278.9 25.5 278.4 27.1 277.9 28.6C276.3 34.3 276.4 40.4 274.1 46.1C273.1 48.7 273.3 51.8 272.8 54.7C271.8 61.3 270.6 68 269.6 74.6C268.7 80.9 267.8 87.2 266.2 93.5C264.8 99 265.9 104.9 267.6 110.5C268 111.7 268.4 112.8 268.5 114C268.6 114.7 267.9 115.9 267.6 115.9C266.5 115.9 265.2 116.7 264.5 114.7C263.4 111.2 261.9 107.7 261.9 103.9C261.9 100.8 262 97.8 261.9 94.7C261.9 94.3 261.1 93.7 260.7 93.7C260.3 93.7 259.4 94.4 259.4 94.6C259.9 98.4 258.1 102.3 260.4 106C261 106.9 260.6 108.5 260.6 109.8C260.6 111.1 260.1 112.8 260.7 113.7C261.8 115.4 262.4 116.3 260.6 118C258.5 120 257.3 117.5 256.2 117.1C250 114.5 249.9 113.7 247.3 106.7C246.4 104.2 246 101.8 246.2 99.3C246.4 96.6 247.4 94 246.2 91.1C245.5 89.3 246.7 88 248.3 86.9C250.5 85.4 250.6 84.8 249.1 82.7C248.6 82 248.1 81.5 247.5 80.8C252.1 78.3 248.1 76.2 247.6 73.7C247.3 72.1 248.5 69.6 249.8 68.2C251.1 66.7 251.4 65.3 251.3 63.5C251.3 60.9 251.3 58.2 251.3 55.6C251.3 52.2 250.8 48.8 253.3 45.9C253.9 45.2 254 43.9 253.9 42.9C253.4 38.2 256.2 33.8 255.3 28.9C255.1 27.9 256 26.7 256.4 25.5C254.9 25.3 253.5 25 252 25C248.3 24.9 244.5 25.1 240.8 24.9C238.8 24.8 236.4 25.8 234.7 23.7C234.4 23.4 233.3 23.4 232.8 23.7C230.3 25.5 227.2 24.2 224.8 25.2C222 26.4 219.3 25.6 216.7 26.4C212.7 27.7 208.7 29.5 205.1 31.6C201.2 33.9 197.5 36.7 193.9 39.5C192.7 40.4 192.7 41.4 194.6 42.2C198.6 43.7 202.4 45.6 206.3 47.4C214.6 51.3 220.8 57.6 226.2 64.8C226.8 65.7 227.5 66.6 228.3 67.2C231 69.4 230.8 72.3 229.6 74.8C225.6 83.2 220.7 90.9 212.6 96.1C211.3 96.9 210.4 98.2 209.2 99.1C208.2 99.9 207 100.4 206.2 101.3C204.5 103.2 201.9 101.8 200.3 102.9C198.8 103.9 198.4 106.5 196.9 107.2C194.2 108.5 191.2 109.8 188.3 110.2C185 110.7 181.7 111.3 178.3 111.7C176 112 175.4 111.3 176.6 109.3C177.6 107.5 177.8 107.2 175.5 106.3C173.1 105.4 170.4 104.2 169.4 101.3C169.2 100.7 168.4 100.3 167.8 99.9C164 97.5 163.4 93.6 162.9 89.6C162.5 86.9 164.6 85.8 166.1 84.3C166.4 84 167.4 84.1 167.8 84.4C172.9 87.5 177.9 85.7 182.9 84.1C185.1 83.4 187.5 83.5 189.6 82.7C195.5 80.2 201.5 77.5 205.7 72.3C206.3 71.5 206.7 70.5 207.1 69.6C208.6 66.1 207.7 62.9 204.1 61.8C201.9 61.1 199.9 60 197.9 59.3C195.4 58.5 192.9 56.9 190 57.6C188.5 58 187.3 57.2 185.9 56.5C184.8 55.9 182.8 55 182 55.2C175.6 56.6 172.6 51.9 168.9 48.3C168.1 47.5 167.5 46.6 166.5 46C165.5 45.4 164.2 45.5 164.4 47.1C164.7 50 163.3 52.4 162.4 54.8C160 61 157.2 67.1 154.6 73.3C154.2 74.2 153.5 75.1 153.2 76C151.6 82.9 146.8 87.1 141.2 90.7C138.5 92.4 136.3 94.8 133.8 96.7C131.7 98.3 129.4 100 127 100.9C124.5 101.8 121.7 102.3 119 102.2C116.3 102.2 113.3 103.5 111 101C110.8 100.8 110.2 101 109.7 101C99.7 100.6 89.9 93.3 85.4 85.6C83.3 81.9 82.4 77.5 79.2 74.4C78.9 74.2 78.8 73.6 78.9 73.2C79.3 69.5 78 66.1 77.7 62.5C77.1 55.2 80.2 48.8 83.9 42.7C84.8 41.3 86.2 40.1 86.6 38.6C87.3 36.1 87.8 36 90 37.4C91.2 38.8 90.3 36.6 90.7 35.8ZM198.6 25.9C198.4 26 198.2 26.1 198.1 26.2C197.4 26.7 195.2 27.6 195.2 28.6C195.2 29.1 195.6 29.1 196 29C196.6 28.8 197 28.4 197.5 28C198.2 27.6 198.9 27.2 199.6 26.9C201.4 26 203.2 25.1 205 24.3C205.8 23.9 206.7 23.4 207.6 23.2C208.5 23 209.3 22.5 210.2 22.3C210.4 22.2 210.6 22.2 210.9 22.1C211.2 22 211.5 21.9 211.8 21.8C212.7 21.5 213.6 21.1 214.6 20.8C214.4 20.5 214.2 20.3 213.8 20.2C213.5 20.1 213.2 20.2 212.9 20.3C212.7 20.4 212.5 20.4 212.3 20.5C212.1 20.6 212 20.6 211.8 20.6C211.7 20.6 211.5 20.6 211.4 20.7C211.1 20.7 210.9 20.8 210.7 20.9C209.7 21.2 208.6 21.6 207.6 22C207.4 22.1 207.1 22.3 206.9 22.3C206.7 22.4 206.5 22.4 206.3 22.5C205.8 22.7 205.3 23 204.8 23.2C204.2 23.5 203.5 23.9 202.9 24.1C201.5 24.9 199.9 25.2 198.6 25.9ZM146 35.1C146 31.8 146 29.4 146 27C146 26.4 145.7 25.5 145.3 25.4C142.9 24.4 140.4 23.3 137.8 22.8C135.5 22.4 133 23 130.6 22.6C127.3 22.2 125.3 23.7 123.6 26.1C122.5 27.6 116.7 32.3 114.8 33.4C110.5 35.8 107.3 39.1 105.1 43.7C101.8 50.5 98.9 57.4 97.2 64.8C96.6 67.2 94.6 69.3 97 71.7C97.3 76.9 101.2 79.8 104.4 83.1C107.9 86.6 109.1 86.6 113.9 84.5C118.2 82.7 121.9 80.1 125.2 76.9C130 72.1 133.8 66.5 137.1 60.8C142 52.7 147.1 44.4 146 35.1ZM440.7 91.1C441 92.7 441.2 93.8 441.4 94.8C442 93.9 442.8 93.1 443.2 92.1C443.5 91.4 443.3 90.4 443.6 89.6C445.6 85 446.3 79.5 450.2 76C453.7 72.8 456.1 68.7 457.3 64.5C458.4 60.7 463 57.2 459.4 52.5C459.1 52.1 459.6 50.9 460.1 50.2C461.5 48.1 460.5 48 458.5 47.5C453.8 46.4 452 43.2 452.7 38.7C452.8 38.3 452.6 37.9 452.5 37.5C452 37.7 451.4 37.7 451.1 38.1C450.6 38.7 450.4 39.6 450.1 40.3C448.4 43.2 449.8 46.9 448.5 49.5C447.4 51.6 448 53.6 447.1 55.5C446.2 57.3 447 59.9 446.1 61.6C444.4 64.6 445.9 68.1 444.6 70.8C441.5 77.6 443.2 85 440.7 91.1ZM141.6 59.4C142.1 60.6 142.4 61.4 142.7 62.1C143.6 61.6 144.8 61.4 145.3 60.7C146.2 59.6 146.6 58.2 147.3 57C147.7 56.3 148.3 55.7 148.6 54.9C149.2 53.2 147.9 50.5 146.2 50.4C144 50.2 145.1 52.1 144.6 53.1C143.7 55.3 142.6 57.4 141.6 59.4ZM250.1 21.4C251.6 21.4 253.1 21.4 254.6 21.4C255.2 21.4 255.8 21.1 256.4 21C255.9 20.4 255.6 19.5 254.9 19.2C252.6 18.1 250.6 19.3 248.5 20.1C247 20.7 245.2 20.5 243.6 20.7C245.1 22.3 247.1 21.1 248.9 21.5C249.3 21.4 249.7 21.4 250.1 21.4ZM154.3 60C155.3 58.8 156.1 58 156.5 57.2C156.6 56.9 155.7 56.2 155.3 55.6C154.9 56.1 154.2 56.6 154 57.2C153.8 57.9 154.1 58.7 154.3 60ZM299 70.7C298.3 71.6 297.7 72.1 297.6 72.7C297.5 73 298.2 73.5 298.5 74C299 73.6 299.7 73.2 300.1 72.6C300.2 72.4 299.6 71.7 299 70.7ZM422.9 69.4C422.5 67.9 422.3 67.1 422.1 66.3C421.8 66.7 421.3 67.1 421.3 67.5C421.3 68.3 421.6 69.1 421.7 69.9C422.2 69.7 422.7 69.5 422.9 69.4ZM485.7 62.5L452 104.8L449.8 104.3L484 61.5L485.7 62.5ZM512.4 33.8L495.9 85.6L494.1 85.8L510.9 33.5L512.4 33.8Z" fill="#F3F3F3"/>
<path d="M30.1 14.6C30.1 16.9 30.2 19.1 29 21.4C28.1 23.1 29.7 25.7 27.6 27.4C27.4 27.5 27.7 28.7 28.1 29C28.5 29.3 29.4 29.1 29.8 28.8C32.6 27 35.3 25.1 38.1 23.3C38.4 23.1 39.1 23.2 39.4 23.4C39.6 23.6 39.6 24.3 39.3 24.6C38.6 25.4 37.8 26.2 37 27C36.9 27.1 37.2 27.6 37.4 27.9C37.5 28 37.9 28 38 27.9C38.5 27.6 39.2 27.4 39.6 26.9C43.1 23.2 47.4 20.5 51.5 17.6C52.2 17.1 52.8 16.2 53.5 16.1C60 15 63.8 9.3 69.2 6.4C69.8 6.1 70.1 5.2 70.6 4.6C69.6 4.5 68.3 3.9 67.6 4.3C64.6 6.1 61.8 8.3 58.8 10.2C58.3 10.5 57.3 10.3 56.6 10.3C56.8 9.6 56.7 8.5 57.1 8.1C58.3 7 59.8 6.2 61.2 5.3C63.6 3.7 66 2 68.5 0.700001C69.9 0.100001 71.8 -0.999999 72.4 2C72.8 3.8 74.1 3.6 76 3C79.7 1.9 81 3.1 81.4 7C81.6 8.3 81.3 9.5 83.4 9.5C84.2 9.5 85 10.9 85.7 11.7C87.1 13.2 87.1 14.1 85.4 15.3C81.1 18.2 76.8 21 72.5 23.9C69.6 25.9 66.7 28 63.9 30.2C57.8 35.1 51.7 40 45.7 44.9C45.2 45.3 44.7 46.1 44.6 46.8C44.5 47.8 44.5 49 45 49.9C48.6 56.7 52.1 63.7 56.2 70.2C61.2 78.3 66.8 86 71.8 94C73.2 96.3 75.1 99 72.4 102.1C71.7 102.8 72.6 104.7 72.1 105.9C71.7 106.8 70 107.2 69.6 108.1C67.9 112.9 64 112.2 60.4 112C59.4 111.9 58 110.7 57.8 109.7C57.4 108.2 56.8 108.1 55.6 108.1C54.6 108.1 53.2 108.1 52.6 107.5C51.8 106.7 51.1 105.3 51.2 104.2C51.4 101.2 49.6 99.2 48.6 96.7C47.4 93.6 47.3 90.2 45.4 87.3C43.4 84.2 41.3 81.1 39.3 78C37.3 74.9 35.8 71.3 33.2 68.8C31.3 66.9 31.6 64.6 30.3 62.6C29.2 60.9 28.7 59.2 26.3 59.4C23.7 59.6 23.6 61.5 23.4 63.6C22.8 68 21.8 72.3 22.1 76.9C22.2 78.4 21.4 80.1 20.8 81.6C19.4 85.1 19.8 88.9 18.3 92.4C16.5 96.6 15.9 97.6 11.6 97.6C8.59997 97.6 5.59997 97.3 2.59997 97.2C2.49997 94.4 2.49997 91.6 2.39997 88.7C2.29997 87.3 2.29997 85.7 1.69997 84.4C-0.300032 80.3 -0.500032 76.4 0.899968 71.8C1.89997 68.4 3.09997 64.6 2.59997 60.6C2.29997 58 3.39997 55.3 3.79997 52.6C4.09997 50.1 3.99997 47.7 4.89997 45.2C5.99997 42 5.39997 38.2 6.29997 34.6C7.09997 31.4 7.89997 28.2 8.69997 25C8.79997 24.1 8.99997 23 9.09997 22C9.19997 18.4 8.79997 14.9 11.3 11.7C12.3 10.4 11.6 7.9 11.8 6C11.9 5.4 12.6 4.8 13 4.2C15.6 6.3 17.2 3.7 19.3 2.9C19.9 2.7 20.6 2.9 21.3 2.9C22.7 2.8 23.9 2.8 23.7 4.9C23.6 6.4 23.8 7.9 24.1 9.3C24.3 10.3 25 11.1 25.4 12C25.9 11.2 26.3 10.4 26.8 9.5C27 9.1 27.3 8.8 27.5 8.5C27.8 8 28 7.4 28.2 6.9C28.8 7.5 29.9 8.1 30 8.8C30.2 10.7 30.1 12.7 30.1 14.6Z" fill="#F3F3F3"/>
</g>
<defs>
<clipPath id="clip0_52_3335">
<rect width="513.3" height="119" fill="white"/>
</clipPath>
</defs>
</svg>

